<svg width="100%" height="100%" id="svg" viewBox="0 0 1440 400" xmlns="http://www.w3.org/2000/svg" class="transition duration-300 ease-in-out delay-150"><defs><linearGradient id="gradient" x1="11%" y1="81%" x2="89%" y2="19%"><stop offset="5%" stop-color="#b5ffe9"></stop><stop offset="95%" stop-color="#32ded4"></stop></linearGradient></defs><path d="M 0,400 C 0,400 0,100 0,100 C 51.52307692307693,103.8974358974359 103.04615384615386,107.7948717948718 195,112 C 286.95384615384614,116.2051282051282 419.3384615384615,120.71794871794873 522,107 C 624.6615384615385,93.28205128205127 697.6000000000001,61.33333333333333 764,65 C 830.3999999999999,68.66666666666667 890.2615384615385,107.94871794871796 965,109 C 1039.7384615384615,110.05128205128204 1129.353846153846,72.87179487179486 1211,65 C 1292.646153846154,57.12820512820513 1366.323076923077,78.56410256410257 1440,100 C 1440,100 1440,400 1440,400 Z" stroke="none" stroke-width="0" fill="url(#gradient)" fill-opacity="0.4" class="transition-all duration-300 ease-in-out delay-150 path-0"></path><defs><linearGradient id="gradient" x1="11%" y1="81%" x2="89%" y2="19%"><stop offset="5%" stop-color="#b5ffe9"></stop><stop offset="95%" stop-color="#32ded4"></stop></linearGradient></defs><path d="M 0,400 C 0,400 0,200 0,200 C 97.21025641025639,185.76153846153846 194.42051282051278,171.5230769230769 262,175 C 329.5794871794872,178.4769230769231 367.52820512820506,199.66923076923075 438,212 C 508.47179487179494,224.33076923076925 611.4666666666667,227.8 697,216 C 782.5333333333333,204.2 850.6051282051282,177.13076923076926 933,174 C 1015.3948717948718,170.86923076923074 1112.1128205128205,191.67692307692306 1199,200 C 1285.8871794871795,208.32307692307694 1362.9435897435897,204.16153846153847 1440,200 C 1440,200 1440,400 1440,400 Z" stroke="none" stroke-width="0" fill="url(#gradient)" fill-opacity="0.53" class="transition-all duration-300 ease-in-out delay-150 path-1"></path><defs><linearGradient id="gradient" x1="11%" y1="81%" x2="89%" y2="19%"><stop offset="5%" stop-color="#b5ffe9"></stop><stop offset="95%" stop-color="#32ded4"></stop></linearGradient></defs><path d="M 0,400 C 0,400 0,300 0,300 C 67.71282051282051,290.3307692307692 135.42564102564103,280.66153846153844 212,275 C 288.574358974359,269.33846153846156 374.0102564102565,267.6846153846154 459,273 C 543.9897435897435,278.3153846153846 628.5333333333334,290.59999999999997 711,290 C 793.4666666666666,289.40000000000003 873.8564102564102,275.9153846153846 945,275 C 1016.1435897435898,274.0846153846154 1078.0410256410257,285.73846153846154 1159,292 C 1239.9589743589743,298.26153846153846 1339.979487179487,299.13076923076926 1440,300 C 1440,300 1440,400 1440,400 Z" stroke="none" stroke-width="0" fill="url(#gradient)" fill-opacity="1" class="transition-all duration-300 ease-in-out delay-150 path-2"></path></svg>